<?xml version="1.0" standalone="no"?><!DOCTYPE svg PUBLIC "-//W3C//DTD SVG 1.1//EN" "http://www.w3.org/Graphics/SVG/1.1/DTD/svg11.dtd"><svg t="1605619479743" class="icon" viewBox="0 0 1024 1024" version="1.1" xmlns="http://www.w3.org/2000/svg" p-id="5169" xmlns:xlink="http://www.w3.org/1999/xlink" width="128" height="128"><defs><style type="text/css"></style></defs><path d="M350.86336 828.39552c-60.27264-15.0528-93.85984-62.976-93.96224-134.06208-0.04096-22.7328 1.61792-33.62816 7.29088-48.2304 13.90592-35.84 50.72896-62.8736 99.18464-72.82688 24.10496-4.95616 31.5392-10.26048 31.5392-22.56896 0-3.87072 2.8672-15.36 6.36928-25.55904 15.93344-46.30528 45.42464-84.91008 76.94336-100.70016 32.99328-16.52736 49.64352-20.25472 89.53856-20.04992 56.66816 0.3072 84.95104 12.5952 124.49792 54.12864l21.74976 22.8352 19.47648-6.73792c94.28992-32.64512 188.3136 22.91712 195.8912 115.75296l2.06848 25.3952 18.57536 6.656c53.02272 19.00544 77.96736 58.90048 73.44128 117.5552-2.94912 38.35904-20.8896 68.97664-49.29536 84.19328l-13.35296 7.14752-296.81664 0.57344c-228.08576 0.43008-300.60544-0.36864-313.1392-3.50208l0 0zM103.2192 785.96096c-36.16768-9.09312-74.50624-42.84416-92.48768-81.46944-10.19904-21.9136-10.73152-25.12896-10.73152-63.87712 0-36.864 0.86016-42.78272 8.99072-61.07136 17.1008-38.58432 49.88928-66.4576 91.0336-77.4144 8.68352-2.31424 16.83456-6.00064 18.1248-8.192s2.72384-14.17216 3.1744-26.58304c2.8672-77.18912 50.7904-145.22368 117.69856-167.05536 36.1472-11.79648 83.57888-12.9024 122.90048 3.72736 12.47232 5.28384 11.0592 6.41024 37.43744-30.14656 15.58528-21.6064 45.11744-44.48256 70.90176-58.18368 27.83232-14.76608 56.79104-21.58592 91.40224-21.504 96.768 0.24576 180.16256 64.22528 211.00544 161.85344 9.85088 31.19104 9.35936 39.936-2.2528 40.18176-5.07904 0.1024-19.59936 3.072-32.29696 6.5536l-23.08096 6.3488-21.05344-22.24128c-59.37152-62.73024-156.24192-76.288-238.592-33.40288-32.89088 17.14176-59.33056 41.73824-79.31904 73.80992-14.2336 22.85568-32.39936 65.49504-32.39936 76.10368 0 7.51616-5.75488 11.264-30.33088 19.78368-76.10368 26.37824-120.50432 87.28576-120.48384 165.21216 0 28.3648 6.92224 63.0784 16.52736 82.96448 3.62496 7.49568 5.632 14.62272 4.48512 15.83104-2.94912 3.11296-97.60768 2.06848-110.6944-1.2288l0 0z" p-id="5170" fill="#1296db"></path></svg>